Coordinates
version=1
nRows=58
nColumns=8
inDegrees=no

Units are S.I. units (second, meters, Newtons, ...)
Angles are in radian.

endheader
time	Shoulder_Right1	Shoulder_Right2	Shoulder_Right3	Elbow_Right1	Wrist_Right1	Wrist_Right2	Wrist_Right3
      0.00254000	     -0.41187100	      0.22897300	      0.24471700	      1.31300000	     -0.52450000	     -0.24371500	     -0.75128300
      0.00255000	     -0.41187200	      0.22887400	      0.24436600	      1.31309000	     -0.52430100	     -0.24289600	     -0.74733400
      0.00256000	     -0.41176000	      0.22876400	      0.24437900	      1.31298000	     -0.52433300	     -0.24303700	     -0.74791700
      0.00257000	     -0.41173500	      0.22893000	      0.24479100	      1.31317000	     -0.52426400	     -0.24337200	     -0.74934000
      0.00258000	     -0.41144100	      0.22882300	      0.24448900	      1.31327000	     -0.52417000	     -0.24330000	     -0.74853000
      0.00259000	     -0.41160900	      0.22857000	      0.24436900	      1.31284000	     -0.52410900	     -0.24329300	     -0.74696800
      0.00260000	     -0.41147400	      0.22876500	      0.24465800	      1.31311000	     -0.52428100	     -0.24350500	     -0.74875100
      0.00261000	     -0.41139100	      0.22869500	      0.24473100	      1.31311000	     -0.52422900	     -0.24372200	     -0.74572900
      0.00262000	     -0.41126100	      0.22882300	      0.24516000	      1.31300000	     -0.52444200	     -0.24447600	     -0.75008400
      0.00263000	     -0.41121600	      0.22870000	      0.24484400	      1.31317000	     -0.52449000	     -0.24412200	     -0.74886300
      0.00264000	     -0.41109700	      0.22868300	      0.24495400	      1.31288000	     -0.52431700	     -0.24435300	     -0.75023400
      0.00265000	     -0.41091300	      0.22897600	      0.24527500	      1.31342000	     -0.52442700	     -0.24417700	     -0.74991400
      0.00266000	     -0.41070000	      0.22899100	      0.24519500	      1.31341000	     -0.52421000	     -0.24428700	     -0.74969100
      0.00267000	     -0.41098300	      0.22850800	      0.24478900	      1.31293000	     -0.52427100	     -0.24416900	     -0.74742400
      0.00268000	     -0.41075200	      0.22893500	      0.24534900	      1.31352000	     -0.52476800	     -0.24436100	     -0.74918200
      0.00269000	     -0.41078600	      0.22858600	      0.24493300	      1.31323000	     -0.52453300	     -0.24407800	     -0.74796000
      0.00270000	     -0.41061100	      0.22883300	      0.24555800	      1.31328000	     -0.52483400	     -0.24507300	     -0.75072400
      0.00271000	     -0.41058800	      0.22858700	      0.24495700	      1.31344000	     -0.52467800	     -0.24424500	     -0.74734400
      0.00272000	     -0.41026900	      0.22880200	      0.24513800	      1.31361000	     -0.52468300	     -0.24440700	     -0.74913900
      0.00273000	     -0.41022900	      0.22888000	      0.24534500	      1.31372000	     -0.52449900	     -0.24453600	     -0.74847300
      0.00274000	     -0.41006900	      0.22891900	      0.24528400	      1.31372000	     -0.52448100	     -0.24447000	     -0.74895000
      0.00275000	     -0.41023000	      0.22865200	      0.24499400	      1.31354000	     -0.52466100	     -0.24410500	     -0.74784300
      0.00276000	     -0.41011300	      0.22883700	      0.24521900	      1.31375000	     -0.52469000	     -0.24427600	     -0.74940800
      0.00277000	     -0.41010400	      0.22870000	      0.24508600	      1.31352000	     -0.52444900	     -0.24418800	     -0.74724900
      0.00278000	     -0.40982900	      0.22886100	      0.24529100	      1.31380000	     -0.52453700	     -0.24450000	     -0.74833500
      0.00279000	     -0.40996700	      0.22849500	      0.24482500	      1.31359000	     -0.52455600	     -0.24408800	     -0.74667200
      0.00280000	     -0.40991700	      0.22832000	      0.24459900	      1.31347000	     -0.52437300	     -0.24428800	     -0.74715400
      0.00281000	     -0.40963600	      0.22882700	      0.24520200	      1.31411000	     -0.52481900	     -0.24445100	     -0.74937300
      0.00282000	     -0.40951300	      0.22865400	      0.24477900	      1.31411000	     -0.52469300	     -0.24420200	     -0.74915000
      0.00283000	     -0.40978800	      0.22831500	      0.24468300	      1.31365000	     -0.52463700	     -0.24436700	     -0.74858800
      0.00284000	     -0.40959500	      0.22869000	      0.24506200	      1.31393000	     -0.52465000	     -0.24433500	     -0.74793200
      0.00285000	     -0.40952000	      0.22860400	      0.24480700	      1.31410000	     -0.52485400	     -0.24422500	     -0.74693300
      0.00286000	     -0.40948200	      0.22864700	      0.24510900	      1.31391000	     -0.52513600	     -0.24486200	     -0.75121400
      0.00287000	     -0.40946300	      0.22847300	      0.24469500	      1.31392000	     -0.52490500	     -0.24421600	     -0.74737500
      0.00288000	     -0.40940600	      0.22835000	      0.24445200	      1.31381000	     -0.52499800	     -0.24402900	     -0.74840300
      0.00289000	     -0.40911400	      0.22870000	      0.24473700	      1.31437000	     -0.52515400	     -0.24403000	     -0.74964300
      0.00290000	     -0.40891400	      0.22865700	      0.24464900	      1.31460000	     -0.52514300	     -0.24431500	     -0.74850400
      0.00291000	     -0.40922800	      0.22832900	      0.24432500	      1.31418000	     -0.52533700	     -0.24404000	     -0.74841500
      0.00292000	     -0.40886000	      0.22873700	      0.24465900	      1.31458000	     -0.52531300	     -0.24412500	     -0.74834500
      0.00293000	     -0.40880600	      0.22863400	      0.24437900	      1.31461000	     -0.52535000	     -0.24385400	     -0.74817400
      0.00294000	     -0.40875000	      0.22866600	      0.24465800	      1.31438000	     -0.52555500	     -0.24458000	     -0.75222500
      0.00295000	     -0.40865000	      0.22864100	      0.24431200	      1.31476000	     -0.52547700	     -0.24385500	     -0.74838900
      0.00296000	     -0.40857800	      0.22860200	      0.24430600	      1.31467000	     -0.52559500	     -0.24397800	     -0.74926100
      0.00297000	     -0.40861600	      0.22861200	      0.24440400	      1.31475000	     -0.52558000	     -0.24412000	     -0.74997300
      0.00298000	     -0.40841900	      0.22864900	      0.24417600	      1.31488000	     -0.52550500	     -0.24381100	     -0.74952400
      0.00299000	     -0.40870500	      0.22837900	      0.24405700	      1.31439000	     -0.52549300	     -0.24388700	     -0.74816700
      0.00300000	     -0.40863500	      0.22851800	      0.24416300	      1.31468000	     -0.52586200	     -0.24386600	     -0.75080000
      0.00301000	     -0.40866000	      0.22838400	      0.24410900	      1.31446000	     -0.52553800	     -0.24398900	     -0.74926600
      0.00302000	     -0.40851300	      0.22849400	      0.24415200	      1.31466000	     -0.52555800	     -0.24416400	     -0.74977900
      0.00303000	     -0.40850400	      0.22846700	      0.24402600	      1.31471000	     -0.52579300	     -0.24379800	     -0.74975400
      0.00304000	     -0.40845800	      0.22811000	      0.24365600	      1.31468000	     -0.52567900	     -0.24404900	     -0.74879300
      0.00305000	     -0.40827400	      0.22840200	      0.24400600	      1.31473000	     -0.52516000	     -0.24423100	     -0.74915200
      0.00306000	     -0.40796600	      0.22860300	      0.24394500	      1.31512000	     -0.52534100	     -0.24417400	     -0.74995200
      0.00307000	     -0.40831200	      0.22830400	      0.24396200	      1.31440000	     -0.52504800	     -0.24430800	     -0.74801100
      0.00308000	     -0.40818000	      0.22849200	      0.24412400	      1.31479000	     -0.52533100	     -0.24439900	     -0.74962100
      0.00309000	     -0.40816600	      0.22828000	      0.24384300	      1.31459000	     -0.52503900	     -0.24424400	     -0.74812800
      0.00310000	     -0.40810500	      0.22829100	      0.24415300	      1.31451000	     -0.52526800	     -0.24501600	     -0.75124200
      0.00311000	     -0.40816100	      0.22820000	      0.24382400	      1.31469000	     -0.52523000	     -0.24429100	     -0.74866400
